<?xml version="1.0" standalone="no"?>
<!DOCTYPE svg PUBLIC "-//W3C//DTD SVG 20010904//EN"
 "http://www.w3.org/TR/2001/REC-SVG-20010904/DTD/svg10.dtd">
<svg version="1.0" xmlns="http://www.w3.org/2000/svg"
 width="700.000000pt" height="700.000000pt" viewBox="0 0 700.000000 700.000000"
 preserveAspectRatio="xMidYMid meet">
<metadata>
Created by potrace 1.14, written by Peter Selinger 2001-2017
</metadata>
<g transform="translate(0.000000,700.000000) scale(0.100000,-0.100000)"
fill="#000000" stroke="none">
<path d="M2025 6164 c-465 -48 -938 -316 -1244 -704 -123 -156 -216 -321 -303
-540 -40 -99 -43 -111 -45 -219 -3 -127 4 -147 64 -206 76 -74 229 -77 321 -7
40 31 68 83 116 222 99 282 261 501 513 692 266 201 630 306 926 266 113 -15
131 -18 226 -44 204 -53 396 -168 607 -360 150 -137 184 -154 306 -150 84 3
156 31 213 83 223 204 374 311 527 372 71 29 225 76 277 86 14 3 37 7 51 10
34 7 327 7 365 -1 17 -3 50 -10 75 -15 25 -6 52 -12 60 -14 8 -2 55 -17 104
-34 253 -88 533 -298 688 -517 78 -109 168 -288 212 -422 60 -180 127 -235
274 -226 95 5 157 44 197 124 19 37 25 145 12 214 -31 163 -194 493 -327 660
-61 78 -216 237 -305 315 -113 100 -363 247 -517 305 -92 34 -270 84 -326 92
-26 3 -67 10 -92 14 -51 10 -498 6 -545 -4 -16 -4 -64 -14 -105 -22 -186 -38
-422 -137 -596 -252 -96 -63 -104 -69 -192 -144 -30 -27 -59 -48 -63 -48 -5 0
-16 8 -26 18 -10 10 -56 48 -103 84 -258 199 -525 315 -840 364 -45 7 -452 13
-505 8z"/>
<path d="M2188 5050 c-50 -15 -93 -48 -117 -90 -25 -45 -35 -76 -126 -415 -36
-132 -81 -297 -101 -366 -19 -70 -37 -135 -39 -145 -3 -11 -20 -75 -38 -144
l-33 -125 -94 -1 c-318 -4 -334 -7 -400 -74 -93 -92 -98 -260 -12 -360 68 -80
69 -80 434 -80 l323 1 40 27 c63 44 92 95 130 232 20 69 37 134 40 145 2 11
11 47 20 80 9 33 30 112 46 175 17 63 32 117 35 119 5 5 19 -40 40 -129 2 -8
40 -157 85 -330 84 -325 217 -844 224 -870 8 -35 106 -408 115 -440 5 -19 28
-105 51 -190 102 -385 123 -444 184 -501 52 -50 111 -67 213 -63 93 4 130 20
178 77 40 47 56 91 134 369 224 793 474 1674 503 1768 l14 45 16 -55 c15 -54
106 -419 146 -592 12 -49 30 -125 41 -170 18 -79 38 -165 45 -198 2 -8 11 -44
20 -80 9 -36 18 -69 19 -75 25 -123 101 -203 201 -210 53 -3 142 12 162 28 72
58 96 92 215 317 25 47 56 105 70 130 14 25 44 80 67 123 109 205 125 233 135
247 9 13 46 15 226 16 236 1 243 2 315 66 57 50 77 98 76 188 -1 95 -20 148
-69 191 -73 65 -99 69 -427 69 -290 1 -325 -5 -399 -70 -37 -33 -126 -174
-206 -328 -23 -46 -46 -80 -51 -75 -7 8 -32 104 -159 628 -33 138 -68 278 -76
313 -9 35 -17 68 -18 75 -1 7 -5 21 -9 32 -3 11 -9 31 -11 45 -16 75 -48 203
-65 261 -43 137 -116 193 -251 193 -121 -1 -200 -47 -242 -141 -18 -42 -80
-250 -133 -448 -29 -111 -80 -293 -100 -360 -8 -27 -17 -59 -20 -70 -2 -11
-27 -101 -54 -200 -28 -99 -53 -189 -55 -200 -5 -24 -55 -204 -173 -625 -73
-263 -103 -354 -103 -314 0 24 -143 614 -169 699 -5 17 -37 140 -71 275 -34
135 -68 270 -76 300 -9 30 -17 62 -19 70 -1 8 -10 42 -19 75 -9 33 -18 67 -20
75 -2 8 -16 60 -30 115 -15 55 -28 107 -30 115 -57 233 -178 664 -203 720 -47
108 -101 140 -233 139 -47 0 -97 -4 -112 -9z"/>
<path d="M505 4123 c-39 -11 -103 -63 -121 -100 -25 -51 -25 -230 -1 -363 87
-463 247 -777 571 -1119 60 -64 587 -595 1447 -1461 114 -114 238 -231 275
-260 131 -99 374 -205 539 -236 146 -26 384 -27 527 0 217 41 427 141 593 282
117 100 1853 1838 1912 1914 132 171 251 375 304 521 51 140 38 282 -32 348
-67 63 -182 86 -272 54 -73 -26 -115 -79 -171 -213 -90 -218 -163 -333 -301
-479 -73 -78 -1346 -1348 -1558 -1555 -301 -293 -451 -375 -707 -382 -205 -6
-337 34 -520 155 -31 21 -395 378 -861 846 -971 975 -988 993 -1066 1122 -79
128 -152 320 -179 467 -2 16 -6 32 -8 35 -2 3 -7 29 -10 56 -4 28 -9 57 -11
65 -2 8 -6 38 -10 65 -13 107 -46 167 -121 215 -38 23 -54 27 -121 28 -43 0
-87 -2 -98 -5z"/>
</g>
</svg>
