<svg class="img-fluid" id="outputsvg" xmlns="http://www.w3.org/2000/svg" style="transform: matrix(1.01591, 0, 0, 1.01591, -101.151, 4.8357); transform-origin: 50% 50%; cursor: move; transition: none 0s ease 0s;" width="1016" height="1016" viewBox="0 0 10160 10160"><g id="l2w9DKog8zhaWUtN90RYKCD" fill="rgb(53,64,66)" style="transform: none;"><g style="transform: none;"><path id="pd20PeAQO" d="M4850 9340 c-115 -11 -325 -55 -435 -91 -117 -39 -347 -152 -455 -224 -138 -94 -240 -187 -539 -496 -156 -162 -695 -705 -1198 -1208 -965 -965 -1022 -1026 -1212 -1306 -172 -252 -311 -557 -381 -835 -67 -266 -110 -521 -110 -656 0 -174 42 -260 160 -324 64 -34 68 -35 180 -35 102 0 120 3 160 24 141 75 188 157 215 377 48 389 161 730 329 992 104 162 234 300 1226 1292 558 558 1107 1110 1220 1226 224 230 327 314 481 394 202 104 393 146 618 137 259 -11 451 -86 704 -275 98 -73 281 -253 2302 -2267 155 -154 317 -323 360 -375 148 -178 243 -343 341 -589 65 -161 90 -206 144 -255 56 -50 121 -77 203 -83 180 -14 336 82 379 232 6 22 11 87 12 145 0 93 -4 116 -33 200 -59 174 -145 336 -304 575 -170 255 -224 317 -576 662 -341 333 -1691 1681 -1956 1953 -185 190 -257 259 -360 344 -33 27 -67 56 -75 65 -36 39 -211 151 -320 206 -171 86 -349 145 -535 175 -137 23 -415 33 -545 20z"></path><path id="p1otjsrL8" d="M4457 7956 c-74 -31 -116 -64 -161 -125 -54 -73 -68 -118 -246 -791 -22 -80 -61 -228 -89 -330 -54 -201 -100 -378 -221 -855 -43 -170 -86 -337 -95 -370 -26 -96 -150 -575 -231 -895 -41 -162 -76 -296 -78 -297 -1 -1 -17 52 -34 120 -18 67 -47 178 -66 247 -19 69 -57 213 -84 320 -28 107 -60 221 -72 252 -26 71 -96 150 -164 186 l-51 27 -455 0 -455 0 -63 -29 c-167 -77 -241 -281 -177 -492 17 -57 77 -133 135 -169 77 -49 124 -55 405 -55 l262 0 13 -57 c7 -32 34 -134 60 -228 43 -151 160 -583 257 -950 56 -209 110 -396 133 -459 29 -76 88 -136 166 -167 51 -21 76 -24 189 -24 150 0 190 13 268 84 67 62 94 134 197 521 13 47 34 123 47 170 13 47 44 166 69 265 25 99 67 261 94 360 27 99 71 268 99 375 27 107 95 369 150 582 89 344 328 1300 346 1386 4 18 8 32 10 30 4 -3 104 -354 150 -523 15 -55 51 -185 80 -290 30 -104 90 -327 135 -495 88 -325 139 -510 225 -815 29 -104 67 -239 84 -300 99 -364 185 -669 203 -725 46 -142 95 -211 181 -253 80 -39 137 -50 236 -45 159 7 253 73 311 217 31 77 33 83 104 386 30 127 93 385 140 575 81 328 136 557 192 790 13 58 29 119 33 135 5 17 17 61 27 98 9 37 20 64 24 60 5 -4 34 -57 65 -118 115 -221 221 -400 267 -450 25 -28 70 -64 98 -79 97 -53 123 -56 530 -56 465 0 503 7 607 103 75 69 96 123 101 252 3 95 1 118 -18 170 -27 73 -114 164 -193 200 -52 25 -55 25 -364 25 l-311 0 -20 33 c-19 31 -52 91 -135 247 -23 41 -58 107 -79 145 -22 39 -48 90 -59 115 -11 25 -26 52 -34 60 -7 8 -42 71 -77 140 -35 69 -86 164 -114 211 -27 47 -58 102 -68 122 -26 51 -107 124 -164 150 -65 29 -211 36 -280 13 -70 -24 -135 -84 -172 -160 -16 -35 -46 -132 -65 -217 -20 -85 -58 -244 -85 -354 -27 -110 -63 -263 -80 -340 -42 -192 -221 -908 -229 -917 -6 -7 -132 428 -276 952 -31 113 -92 327 -135 475 -103 355 -208 725 -320 1130 -123 444 -128 460 -166 536 -36 73 -94 131 -163 162 -37 17 -70 22 -166 24 -109 3 -126 1 -178 -21z"></path><path id="p5M8bJZkV" d="M9124 3721 c-74 -9 -138 -44 -189 -103 -47 -54 -65 -94 -110 -243 -42 -140 -155 -377 -246 -515 -210 -321 -496 -568 -878 -760 -110 -55 -285 -112 -446 -147 -118 -25 -149 -27 -340 -27 -236 -1 -295 8 -526 74 -330 95 -534 216 -869 516 -74 66 -155 135 -179 152 -66 48 -155 72 -267 72 -161 0 -225 -33 -409 -210 -253 -243 -528 -418 -800 -508 -180 -60 -432 -102 -607 -102 -280 0 -557 65 -823 194 -106 52 -304 171 -325 196 -3 3 -50 42 -105 85 -265 213 -486 506 -605 805 -13 30 -44 119 -70 197 -60 179 -99 234 -205 290 -40 21 -68 27 -141 31 -157 8 -254 -38 -324 -154 -34 -57 -35 -61 -39 -182 -4 -150 9 -210 81 -385 185 -450 359 -720 658 -1016 369 -367 849 -630 1323 -726 464 -94 1016 -65 1435 74 301 100 619 284 883 512 l81 70 47 -44 c247 -231 606 -439 941 -546 253 -81 443 -111 747 -118 376 -9 603 23 933 131 240 78 398 157 665 332 144 94 227 164 420 359 231 231 354 404 503 702 245 490 274 766 96 922 -73 65 -174 88 -310 72z"></path></g></g><g id="l6ccugvwM8dhnZEnb01udmG" fill="rgb(241,248,246)" style="transform: none;"><g style="transform: none;"><path id="plQDNKfo1" d="M0 5080 l0 -5080 5080 0 5080 0 0 5080 0 5080 -5080 0 -5080 0 0 -5080z m5367 4210 c183 -30 362 -89 533 -175 109 -55 284 -167 320 -206 8 -9 42 -38 75 -65 103 -85 175 -154 360 -344 265 -272 1615 -1620 1956 -1953 352 -345 406 -407 576 -662 160 -241 246 -403 304 -575 69 -203 30 -364 -108 -457 -132 -87 -280 -79 -393 23 -54 49 -79 94 -144 255 -98 246 -193 411 -341 589 -43 52 -205 221 -360 375 -2021 2014 -2204 2194 -2302 2267 -177 133 -298 195 -474 244 -78 21 -123 27 -261 31 -260 8 -438 -29 -647 -137 -154 -80 -257 -164 -481 -394 -113 -116 -662 -668 -1220 -1226 -992 -992 -1122 -1130 -1226 -1292 -168 -262 -281 -603 -329 -992 -27 -220 -74 -302 -215 -377 -37 -20 -60 -24 -130 -24 -78 0 -90 3 -150 35 -110 60 -160 152 -160 294 0 153 97 624 168 821 121 332 273 598 517 903 77 96 335 360 1018 1043 503 503 1042 1046 1198 1208 299 309 401 402 539 496 108 72 338 185 455 224 110 36 320 80 435 91 121 12 349 3 487 -20z m-596 -1367 c101 -45 171 -141 217 -298 11 -38 62 -218 112 -400 50 -181 146 -519 212 -750 181 -631 243 -853 294 -1040 25 -93 87 -316 138 -495 51 -179 98 -341 103 -360 l10 -35 21 70 c29 95 204 797 242 970 17 77 53 230 80 340 27 110 65 269 85 354 19 85 49 182 65 217 93 194 325 232 488 80 27 -25 57 -62 68 -83 10 -20 41 -75 68 -122 28 -47 79 -142 114 -211 35 -69 70 -132 77 -140 8 -8 23 -35 34 -60 11 -25 37 -76 59 -115 21 -38 56 -104 79 -145 83 -156 116 -216 135 -247 l20 -33 311 0 c309 0 312 0 364 -25 29 -13 79 -50 112 -82 79 -78 105 -145 99 -258 -5 -97 -34 -161 -101 -222 -103 -95 -145 -103 -577 -103 -374 0 -404 3 -500 56 -28 15 -73 51 -98 79 -46 50 -150 227 -267 450 -67 127 -106 197 -110 193 -2 -3 -34 -114 -65 -228 -5 -19 -20 -82 -34 -140 -69 -289 -115 -475 -192 -790 -47 -190 -110 -448 -140 -575 -71 -303 -73 -309 -104 -386 -37 -92 -82 -144 -156 -180 -107 -53 -211 -50 -331 8 -86 42 -135 111 -181 253 -18 56 -104 361 -203 725 -17 61 -55 196 -84 300 -86 305 -137 490 -225 815 -45 168 -105 391 -135 495 -29 105 -65 235 -80 290 -15 55 -54 195 -87 310 -34 116 -69 242 -78 280 -20 77 -21 76 -45 -45 -24 -117 -234 -968 -356 -1438 -55 -213 -123 -475 -150 -582 -28 -107 -72 -276 -99 -375 -27 -99 -69 -261 -94 -360 -25 -99 -56 -218 -69 -265 -13 -47 -34 -123 -47 -170 -103 -387 -130 -459 -197 -521 -73 -67 -121 -84 -238 -84 -123 1 -196 26 -260 90 -57 57 -87 140 -198 560 -97 367 -214 799 -257 950 -26 94 -53 196 -60 228 l-13 57 -262 0 c-280 0 -328 6 -404 54 -38 24 -102 90 -120 124 -6 12 -18 50 -26 86 -37 159 42 325 187 392 l63 29 425 0 425 0 51 -27 c68 -36 138 -115 164 -186 12 -31 44 -145 72 -252 27 -107 66 -253 85 -325 65 -240 113 -428 113 -446 0 -10 4 -20 8 -23 9 -5 42 113 141 504 61 238 184 713 206 795 9 33 52 200 95 370 121 477 167 654 221 855 28 102 67 250 89 330 178 673 192 718 246 791 45 61 87 94 161 125 50 21 70 24 148 21 64 -2 104 -9 136 -24z m4568 -4257 c117 -61 191 -198 177 -330 -24 -236 -252 -722 -477 -1023 -79 -104 -344 -377 -469 -482 -146 -123 -450 -309 -642 -392 -85 -37 -310 -111 -418 -139 -280 -70 -709 -90 -1000 -45 -455 69 -874 254 -1229 540 -64 51 -132 109 -150 129 -19 20 -40 36 -45 36 -6 0 -53 -36 -105 -80 -125 -108 -187 -155 -308 -234 -118 -77 -332 -190 -448 -236 -377 -151 -815 -209 -1242 -165 -334 34 -617 118 -913 272 -264 137 -474 289 -680 494 -299 296 -473 566 -658 1016 -69 167 -85 240 -80 356 3 86 7 99 38 152 65 108 173 163 296 152 62 -6 137 -37 179 -74 57 -51 89 -109 135 -246 26 -78 57 -167 70 -197 119 -299 340 -592 605 -805 55 -43 102 -82 105 -85 21 -25 219 -144 325 -196 277 -134 541 -194 853 -194 157 0 239 9 422 46 373 77 693 255 1015 564 127 122 185 164 261 191 107 38 262 15 355 -53 24 -17 105 -86 179 -152 335 -300 539 -421 869 -516 237 -68 287 -75 556 -75 224 1 249 2 370 28 161 35 336 92 446 147 382 192 668 439 878 760 91 138 204 375 246 515 20 65 44 137 54 160 26 56 84 120 138 152 74 43 217 47 292 9z"></path></g></g></svg>